# xmcd
#
# Track frame offsets:
#	150
#	16011
#	31343
#	49390
#	63465
#	78041
#	94656
#	112676
#	128923
#	144216
#	158394
#	174210
#
# Disc length: 2911 seconds
#
# Revision: 2
# Processed by: cddbd v1.4PL0 Copyright (c) Steve Scherf et al.
# Submitted via: EZCDDA 4.3.2
#
DISCID=7e0b5d0c
DTITLE=Alain Sourigues - Deux
DYEAR=1900
DGENRE=
TTITLE0=Mon coeur bat trop
TTITLE1=Comme un grand
TTITLE2=Cafardage (Musique - Yves Lannot)
TTITLE3=Frida (Musique - Jules Thévenot)
TTITLE4=Je marche tout droit
TTITLE5=La petite voix
TTITLE6=Monomoinia
TTITLE7=L'escurada
TTITLE8=Valse de minuit (Musique - Davy Kilembé)
TTITLE9=Heure verte (Poème de Georges Tis)
TTITLE10=Un jour, comme un autre
TTITLE11=Je ferai de grandes choses
EXTD=
EXTT0=
EXTT1=
EXTT2=
EXTT3=
EXTT4=
EXTT5=
EXTT6=
EXTT7=
EXTT8=
EXTT9=
EXTT10=
EXTT11=
PLAYORDER=
